Coordinates
version=1
nRows=24
nColumns=38
inDegrees=no

Units are S.I. units (second, meters, Newtons, ...)
If the header above contains a line with 'inDegrees', this indicates whether rotational values are in degrees (yes) or radians (no).

endheader
time	pelvis_tilt	pelvis_list	pelvis_rotation	pelvis_tx	pelvis_ty	pelvis_tz	hip_flexion_r	hip_adduction_r	hip_rotation_r	knee_angle_r	ankle_angle_r	subtalar_angle_r	mtp_angle_r	hip_flexion_l	hip_adduction_l	hip_rotation_l	knee_angle_l	ankle_angle_l	subtalar_angle_l	mtp_angle_l	lumbar_extension	lumbar_bending	lumbar_rotation	arm_flex_r	arm_add_r	arm_rot_r	elbow_flex_r	pro_sup_r	wrist_flex_r	wrist_dev_r	arm_flex_l	arm_add_l	arm_rot_l	elbow_flex_l	pro_sup_l	wrist_flex_l	wrist_dev_l
10	-2.93937	1.2836	-1.24542	0.601306	1.35195	0.959493	0.0144106	-0.086986	-0.170741	0.756963	-0.307965	0	0	-0.142103	-0.0430902	-0.0544394	0.382047	-0.252975	0	0	-0.44228	0.0959263	0.00161003	1.33863	-0.57264	1.5708	0.607063	1.05028	0	0	0.0162004	-0.572214	-0.218598	1.47465	1.5708	0	0
10.01	-2.93928	1.28245	-1.24596	0.601649	1.34831	0.959345	0.0058992	-0.0847599	-0.170398	0.787115	-0.302703	0	0	-0.138743	-0.0419881	-0.0562489	0.383229	-0.254903	0	0	-0.439717	0.0949408	0.000758857	1.33444	-0.569776	1.5708	0.604783	1.05487	0	0	0.0134758	-0.573459	-0.223251	1.4802	1.5708	0	0
10.02	-2.93974	1.28223	-1.24639	0.602048	1.34472	0.95909	-0.00260807	-0.082308	-0.169957	0.814584	-0.29843	0	0	-0.133946	-0.040704	-0.0597354	0.386141	-0.25526	0	0	-0.435869	0.0937314	0.000704372	1.32981	-0.567463	1.5708	0.60302	1.05922	0	0	0.0111657	-0.574042	-0.227638	1.48532	1.5708	0	0
10.03	-2.94147	1.28302	-1.24622	0.602659	1.34119	0.958804	-0.0109371	-0.0787431	-0.16828	0.838645	-0.295474	0	0	-0.128341	-0.039682	-0.0607789	0.386886	-0.258425	0	0	-0.430764	0.0921131	0.00186671	1.32444	-0.565544	1.5708	0.601276	1.06317	0	0	0.0096546	-0.574256	-0.231387	1.48972	1.5708	0	0
10.04	-2.94445	1.28438	-1.24544	0.603333	1.33774	0.958454	-0.0195137	-0.0742368	-0.165619	0.859325	-0.293544	0	0	-0.121984	-0.0386713	-0.0635159	0.388539	-0.261025	0	0	-0.424644	0.0905497	0.00433774	1.31884	-0.564641	1.5708	0.600225	1.06678	0	0	0.00874741	-0.573921	-0.23424	1.49342	1.5708	0	0
10.05	-2.94829	1.28615	-1.24451	0.604026	1.33435	0.958049	-0.0283218	-0.0693111	-0.162145	0.87712	-0.292603	0	0	-0.114897	-0.0376678	-0.0680964	0.391851	-0.261609	0	0	-0.41763	0.0890642	0.00802765	1.31297	-0.564599	1.5708	0.599516	1.07	0	0	0.00842439	-0.57298	-0.236085	1.49643	1.5708	0	0
10.06	-2.95184	1.28745	-1.2447	0.604881	1.33088	0.957693	-0.0381746	-0.0637205	-0.157194	0.891864	-0.292883	0	0	-0.108345	-0.0366577	-0.0713477	0.394279	-0.263135	0	0	-0.411124	0.0875542	0.0131917	1.30732	-0.565245	1.5708	0.59907	1.07282	0	0	0.00920411	-0.57154	-0.237019	1.49882	1.5708	0	0
10.07	-2.95347	1.28877	-1.24717	0.605842	1.32739	0.957394	-0.0489282	-0.0580366	-0.150976	0.903357	-0.294367	0	0	-0.102302	-0.0348368	-0.0723304	0.394766	-0.266779	0	0	-0.404724	0.0851976	0.0192305	1.30123	-0.566486	1.5708	0.598624	1.07518	0	0	0.0106557	-0.57008	-0.236909	1.5008	1.5708	0	0
10.08	-2.95559	1.29027	-1.24963	0.606798	1.32389	0.957046	-0.0601043	-0.0519652	-0.143822	0.911868	-0.297182	0	0	-0.0961564	-0.0327952	-0.0742155	0.395757	-0.269346	0	0	-0.397834	0.0830235	0.026285	1.295	-0.568149	1.5708	0.598166	1.0771	0	0	0.0126033	-0.56809	-0.235871	1.50224	1.5708	0	0
10.09	-2.95869	1.29233	-1.25197	0.607859	1.32045	0.956667	-0.0711631	-0.0455305	-0.135894	0.917407	-0.301799	0	0	-0.0896757	-0.0308246	-0.0768482	0.396242	-0.271404	0	0	-0.389898	0.0808546	0.0349706	1.28821	-0.57072	1.5708	0.598266	1.07884	0	0	0.0153851	-0.56583	-0.233224	1.50257	1.5708	0	0
10.1	-2.95956	1.29274	-1.25687	0.609026	1.31686	0.956363	-0.084732	-0.0389932	-0.127338	0.919441	-0.307504	0	0	-0.0851499	-0.0285966	-0.0779009	0.397115	-0.273703	0	0	-0.383867	0.0789186	0.0445091	1.2822	-0.573642	1.5708	0.598577	1.08011	0	0	0.0191131	-0.56359	-0.229433	1.50235	1.5708	0	0
10.11	-2.96228	1.29484	-1.26087	0.610107	1.31357	0.955991	-0.0975895	-0.0324867	-0.117807	0.917474	-0.31403	0	0	-0.0789161	-0.0263772	-0.0809328	0.397842	-0.276426	0	0	-0.374985	0.0769738	0.0551791	1.27463	-0.576969	1.5708	0.598945	1.08078	0	0	0.0218721	-0.560847	-0.224769	1.50127	1.5708	0	0
10.12	-2.95891	1.29477	-1.26905	0.611652	1.30975	0.955652	-0.112923	-0.0260988	-0.10922	0.913144	-0.32078	0	0	-0.0744003	-0.0235618	-0.0810066	0.398449	-0.27905	0	0	-0.369932	0.074245	0.0646269	1.26893	-0.580103	1.5708	0.599046	1.08078	0	0	0.0272514	-0.559493	-0.219061	1.50009	1.5708	0	0
10.13	-2.9574	1.29664	-1.27654	0.613119	1.30615	0.955189	-0.126857	-0.0202183	-0.100586	0.905244	-0.328617	0	0	-0.0689975	-0.0206351	-0.0833455	0.397358	-0.28209	0	0	-0.362021	0.071259	0.0755626	1.26197	-0.584374	1.5708	0.600009	1.08006	0	0	0.0318349	-0.557695	-0.212166	1.49814	1.5708	0	0
10.14	-2.95249	1.29572	-1.28762	0.614738	1.30221	0.954794	-0.144129	-0.0145574	-0.0921027	0.894271	-0.334693	0	0	-0.0667122	-0.0177149	-0.0862222	0.396022	-0.284819	0	0	-0.357994	0.0685287	0.0866141	1.25717	-0.588041	1.5708	0.600627	1.07891	0	0	0.0368793	-0.55589	-0.205603	1.4968	1.5708	0	0
10.15	-2.94635	1.29554	-1.29991	0.616545	1.29829	0.954348	-0.16128	-0.00908393	-0.0834145	0.880358	-0.337495	0	0	-0.0639409	-0.0145587	-0.0891686	0.394046	-0.287956	0	0	-0.353456	0.0650243	0.0971686	1.25221	-0.59081	1.5708	0.600667	1.07735	0	0	0.040891	-0.554439	-0.199984	1.49594	1.5708	0	0
10.16	-2.94011	1.29643	-1.3123	0.618524	1.29435	0.953842	-0.177572	-0.00375714	-0.0747498	0.864154	-0.33723	0	0	-0.0602134	-0.0111735	-0.0919024	0.391204	-0.291453	0	0	-0.347938	0.0610436	0.107465	1.24692	-0.592859	1.5708	0.599994	1.07533	0	0	0.0441829	-0.553182	-0.194868	1.49514	1.5708	0	0
10.17	-2.93426	1.29812	-1.32417	0.62065	1.29036	0.953329	-0.193259	0.00164864	-0.0656341	0.845835	-0.334703	0	0	-0.055771	-0.00789617	-0.0942401	0.387849	-0.295285	0	0	-0.341825	0.0569658	0.117456	1.24149	-0.594266	1.5708	0.598783	1.07272	0	0	0.0470047	-0.552131	-0.189939	1.49417	1.5708	0	0
10.18	-2.92775	1.29903	-1.33656	0.622796	1.28609	0.95284	-0.209648	0.00639073	-0.0567846	0.825962	-0.331387	0	0	-0.0522359	-0.00452969	-0.0965956	0.383978	-0.299158	0	0	-0.33721	0.0533232	0.127018	1.23737	-0.595289	1.5708	0.597698	1.07018	0	0	0.0495361	-0.550565	-0.185846	1.49358	1.5708	0	0
10.19	-2.92187	1.30061	-1.34824	0.624987	1.28168	0.95234	-0.22527	0.0106742	-0.0480317	0.804057	-0.328576	0	0	-0.048208	-0.00111246	-0.0991062	0.379076	-0.303754	0	0	-0.332263	0.0500358	0.136274	1.23377	-0.59568	1.5708	0.596261	1.06749	0	0	0.0516866	-0.548788	-0.18191	1.49278	1.5708	0	0
10.2	-2.91714	1.3033	-1.35844	0.627235	1.27714	0.951832	-0.239403	0.0146222	-0.0398182	0.780211	-0.328105	0	0	-0.0431413	0.00219897	-0.101227	0.373151	-0.308932	0	0	-0.326448	0.0471127	0.144852	1.23035	-0.595431	1.5708	0.594468	1.06459	0	0	0.0531793	-0.546726	-0.178667	1.49174	1.5708	0	0
10.21	-2.91417	1.30705	-1.36658	0.629546	1.27249	0.951336	-0.251939	0.0183194	-0.0332362	0.75376	-0.329172	0	0	-0.0371833	0.00509759	-0.102824	0.366056	-0.315205	0	0	-0.319749	0.0443806	0.153241	1.22671	-0.595148	1.5708	0.592607	1.06103	0	0	0.0545831	-0.544711	-0.175148	1.49031	1.5708	0	0
10.22	-2.91065	1.3058	-1.37534	0.632038	1.26723	0.951077	-0.268693	0.0220901	-0.0278692	0.724237	-0.327148	0	0	-0.0362755	0.00699959	-0.104985	0.358569	-0.321248	0	0	-0.320081	0.0431203	0.161556	1.22691	-0.59442	1.5708	0.590631	1.05784	0	0	0.0574516	-0.542226	-0.172393	1.4894	1.5708	0	0
10.23	-2.908	1.30436	-1.38317	0.634639	1.2618	0.950874	-0.285009	0.0257496	-0.0237769	0.690326	-0.318862	0	0	-0.0359602	0.00853144	-0.107145	0.349691	-0.328544	0	0	-0.32131	0.0422724	0.169627	1.2281	-0.593322	1.5708	0.588582	1.05492	0	0	0.0604104	-0.539468	-0.170117	1.48837	1.5708	0	0
